<svg viewBox="0 0 24 24" width="800px" height="800px" fill="none" xmlns="http://www.w3.org/2000/svg">
  <path d="M15.3 12.8c-.4-.5-1.1-.8-1.9-.8-1.5 0-2.4 1-2.4 2.5 0 1.4.9 2.4 2.3 2.4.9 0 1.6-.4 2-1v-3.1zm-4.7 4c-1.3-.9-2-2.1-2-3.7 0-2.5 1.9-4.2 4.7-4.2 1.3 0 2.4.4 3.1 1.1v-.8c0-1.5-1.1-2.4-2.7-2.4-1.2 0-2.3.5-3 1.2l-1.2-1.4c1.1-1.1 2.7-1.8 4.6-1.8 2.8 0 4.7 1.6 4.7 4.5v7.2h-2.1v-1.1c-.8.8-2 1.4-3.4 1.4-1.9 0-3.6-1.1-3.6-3zm11.3 2.1c-6 2.3-12.7 2.3-18.7-.3-.4-.2-.8.2-.5.5 5.8 4.7 14.1 4.7 20 0 .3-.3 0-.7-.4-.5z" fill="#FF9900"/>
  <path d="M21.5 18.2c-.3-.4-1.9-.2-2.6-.1-.2 0-.3-.2-.1-.3.9-.7 2.4-.5 2.7-.2.3.4-.1 1.9-.8 2.7-.2.2-.3.1-.2-.1.3-.6 1.3-1.6 1-2z" fill="#FF9900"/>
</svg>
