<svg viewBox="0 0 24 24" width="800px" height="800px" xmlns="http://www.w3.org/2000/svg">
  <path d="M5.2 11.4c-.9 0-1.6.5-1.6 1.4 0 1 .7 1.4 1.8 1.4h1.7v-1.6c0-.8-.7-1.2-1.9-1.2zm1.7 4.1h-1.6c-2.1 0-3.3-1-3.3-2.6 0-1.8 1.5-2.6 3.4-2.6 1.3 0 2.2.3 2.8.7v-.5c0-1-.7-1.5-2.1-1.5-1 0-1.8.3-2.4.7l-.6-1.3c.9-.6 2.1-.9 3.4-.9 2.4 0 3.6 1.1 3.6 3.2v5.4h-1.6v-1c-.5.6-1.4 1.1-2.6 1.1z" fill="#E53238"/>
  <path d="M12.5 7.9h1.9v2.2c.5-.7 1.3-1.1 2.3-1.1 1.9 0 3.2 1.4 3.2 3.8 0 2.4-1.3 3.8-3.2 3.8-1 0-1.8-.4-2.3-1.1v1h-1.9V7.9zm4.2 3.4c-1.1 0-1.9.8-1.9 2.2s.8 2.2 1.9 2.2 1.9-.8 1.9-2.2-.8-2.2-1.9-2.2z" fill="#0064D2"/>
  <path d="M22.1 11.4c0-1.1.8-1.8 1.8-1.8s1.8.7 1.8 1.8h-3.6zm3.6.9c0-2-1.3-3.4-3.4-3.4-2.1 0-3.4 1.4-3.4 3.4 0 2.1 1.3 3.4 3.5 3.4 1.2 0 2.2-.4 2.8-1.1l-1.1-1c-.4.4-1 .7-1.7.7-1 0-1.7-.6-1.7-1.6h5c0-.1 0-.3 0-.4z" fill="#F5AF02"/>
</svg>
